<svg xmlns="http://www.w3.org/2000/svg" xmlns:xlink="http://www.w3.org/1999/xlink" version="1.1" id="Layer_1" x="0px" y="0px" viewBox="0 0 1296 864" enable-background="new 0 0 1296 864" xml:space="preserve"><style>.style0{opacity:0.02;stroke:#DDE9F1;stroke-width:1.6718;stroke-miterlimit:10;fill:none;}.style1{opacity:0.02;}.style2{stroke:#DDE9F1;stroke-width:1.6718;stroke-miterlimit:10;fill:none;}</style><line x1="791.1" y1="429.9" x2="761.2" y2="423.8" class="style0"/><line x1="738.6" y1="373.7" x2="766.1" y2="285.5" class="style0"/><line x1="702.9" y1="445.8" x2="681.7" y2="480.9" class="style0"/><line x1="673.5" y1="532.2" x2="673.7" y2="585.6" class="style0"/><line x1="688.9" y1="593.8" x2="794.3" y2="561.6" class="style0"/><line x1="793.9" y1="542.1" x2="697" y2="517.6" class="style0"/><line x1="810.5" y1="526.4" x2="799.8" y2="445.3" class="style0"/><line x1="814.7" y1="438.2" x2="877.2" y2="460.1" class="style0"/><line x1="886.4" y1="448.4" x2="872.5" y2="362.1" class="style0"/><line x1="861.5" y1="360.7" x2="810.5" y2="423.1" class="style0"/><line x1="859.3" y1="337.3" x2="804.2" y2="277.1" class="style0"/><line x1="872.5" y1="334.3" x2="904.4" y2="241.4" class="style0"/><path d="M992.9 137.8" class="style0"/><path d="M906.4 225" class="style0"/><line x1="991.9" y1="150.8" x2="982.1" y2="284" class="style0"/><line x1="1143.2" y1="207.3" x2="1106.1" y2="309" class="style0"/><line x1="1084.4" y1="320.4" x2="997.6" y2="300.5" class="style0"/><line x1="973.7" y1="287.6" x2="917.9" y2="238.6" class="style0"/><line x1="984.7" y1="312.7" x2="996.6" y2="416.4" class="style0"/><line x1="1020.8" y1="418.6" x2="1090.8" y2="333.4" class="style0"/><line x1="1108.7" y1="331.9" x2="1149.8" y2="363.8" class="style0"/><line x1="1148.5" y1="397.4" x2="1036.3" y2="435.8" class="style0"/><line x1="973.6" y1="451.9" x2="905.8" y2="459.1" class="style0"/><line x1="991.6" y1="476.9" x2="937.5" y2="564.2" class="style0"/><line x1="896.3" y1="475.6" x2="923" y2="565.2" class="style0"/><line x1="686.2" y1="395.4" x2="624.6" y2="360.9" class="style0"/><line x1="594.4" y1="378.3" x2="591.4" y2="433.1" class="style0"/><line x1="602.2" y1="458.4" x2="650.9" y2="492.3" class="style0"/><line x1="593.1" y1="464" x2="666.2" y2="588.4" class="style0"/><line x1="681.7" y1="615.5" x2="708.5" y2="691.9" class="style0"/><line x1="725.9" y1="697.6" x2="795" y2="652.5" class="style0"/><line x1="810.5" y1="627.6" x2="813.2" y2="577.2" class="style0"/><line x1="793" y1="636.6" x2="688.9" y2="608.2" class="style0"/><line x1="821.3" y1="635.7" x2="914.8" y2="588.5" class="style0"/><line x1="913.9" y1="576.5" x2="843.7" y2="559.2" class="style0"/><line x1="834.5" y1="530.5" x2="881.2" y2="471.8" class="style0"/><line x1="1014.7" y1="479" x2="1013.7" y2="510.4" class="style0"/><line x1="1000.9" y1="535.5" x2="946.4" y2="571" class="style0"/><line x1="937.1" y1="598.6" x2="954.7" y2="666.5" class="style0"/><line x1="946.2" y1="674.7" x2="822.6" y2="646.6" class="style0"/><line x1="966" y1="668.8" x2="998.6" y2="630.6" class="style0"/><line x1="1000.9" y1="615.1" x2="949.2" y2="585.3" class="style0"/><line x1="1008.3" y1="611.9" x2="1011.7" y2="541.6" class="style0"/><line x1="1028.5" y1="529.7" x2="1087.8" y2="564.3" class="style0"/><line x1="1082.8" y1="610.4" x2="1021.2" y2="620.1" class="style0"/><line x1="1036.9" y1="663.3" x2="1020.1" y2="630.9" class="style0"/><line x1="1062.9" y1="664.3" x2="1097.2" y2="628.6" class="style0"/><line x1="1140.1" y1="635.6" x2="1147.8" y2="657.2" class="style0"/><line x1="1164.7" y1="616" x2="1208.8" y2="641.1" class="style0"/><path d="M1212.9 535.8" class="style0"/><path d="M1225.8 650.4" class="style0"/><line x1="1198.1" y1="540.3" x2="1159" y2="559.8" class="style0"/><line x1="1144.3" y1="549.3" x2="1170.5" y2="498.8" class="style0"/><line x1="1164" y1="481.8" x2="1129.4" y2="480.9" class="style0"/><line x1="1114.2" y1="495.8" x2="1116.6" y2="546" class="style0"/><line x1="1095.9" y1="555.6" x2="1025.4" y2="473.7" class="style0"/><line x1="1102.4" y1="478.4" x2="1036.1" y2="460.1" class="style0"/><line x1="1118.9" y1="468.7" x2="1160.8" y2="409.9" class="style0"/><line x1="1200.3" y1="358.8" x2="1236.7" y2="324.3" class="style0"/><line x1="1232.3" y1="312.9" x2="1112.8" y2="318" class="style0"/><line x1="980.2" y1="427.6" x2="879.4" y2="357.8" class="style0"/><line x1="614.6" y1="374.2" x2="665.1" y2="480.9" class="style0"/><line x1="343" y1="610.4" x2="336.9" y2="640.4" class="style0"/><line x1="286.7" y1="663" x2="198.5" y2="635.5" class="style0"/><line x1="506.8" y1="712.6" x2="474.6" y2="607.3" class="style0"/><line x1="442.5" y1="590.9" x2="358.3" y2="601.8" class="style0"/><line x1="351.3" y1="586.9" x2="373.1" y2="524.2" class="style0"/><line x1="361.4" y1="515.2" x2="275.1" y2="529.1" class="style0"/><line x1="273.7" y1="540.1" x2="335.9" y2="591" class="style0"/><line x1="250.3" y1="542.2" x2="190.1" y2="597.4" class="style0"/><line x1="247.2" y1="529.3" x2="154.5" y2="497.2" class="style0"/><line x1="131" y1="488.3" x2="61.9" y2="419.5" class="style0"/><line x1="63.9" y1="409.6" x2="197" y2="419.5" class="style0"/><line x1="120.3" y1="258.5" x2="221.8" y2="295.9" class="style0"/><line x1="232.7" y1="317.1" x2="213.4" y2="403.9" class="style0"/><line x1="200.6" y1="427.9" x2="151.6" y2="483.7" class="style0"/><line x1="225.7" y1="416.9" x2="329.4" y2="405" class="style0"/><line x1="331.6" y1="380.8" x2="245.9" y2="311.5" class="style0"/><line x1="244.9" y1="292.8" x2="276.8" y2="251.7" class="style0"/><line x1="310.4" y1="253.1" x2="348.8" y2="365.2" class="style0"/><line x1="364.9" y1="427.9" x2="372.1" y2="495.8" class="style0"/><line x1="389.9" y1="409.9" x2="477" y2="464.4" class="style0"/><line x1="388.6" y1="505.3" x2="478.2" y2="478.5" class="style0"/><line x1="528.5" y1="720" x2="605" y2="693.1" class="style0"/><line x1="610.6" y1="675.6" x2="565.5" y2="606.6" class="style0"/><line x1="540.6" y1="591.1" x2="490.3" y2="588.4" class="style0"/><line x1="549.6" y1="608.5" x2="521.3" y2="712.4" class="style0"/><line x1="548.8" y1="580.3" x2="501.5" y2="486.8" class="style0"/><line x1="489.5" y1="487.7" x2="472.2" y2="557.8" class="style0"/><line x1="443.5" y1="567.1" x2="384.9" y2="520.4" class="style0"/><line x1="392" y1="386.8" x2="423.4" y2="387.8" class="style0"/><line x1="448.6" y1="400.7" x2="484" y2="455.1" class="style0"/><line x1="512.1" y1="469.4" x2="574.9" y2="453.1" class="style0"/><line x1="585.8" y1="463.9" x2="559.6" y2="579" class="style0"/><line x1="578.3" y1="438.2" x2="542.8" y2="403.5" class="style0"/><line x1="528.3" y1="400.7" x2="498.3" y2="452.4" class="style0"/><line x1="525.1" y1="394.2" x2="454.7" y2="390.1" class="style0"/><line x1="442.6" y1="373" x2="477" y2="313.7" class="style0"/><line x1="523.5" y1="318.8" x2="533.1" y2="380.4" class="style0"/><line x1="576.3" y1="364.6" x2="543.9" y2="381.4" class="style0"/><line x1="577.3" y1="338.6" x2="541.5" y2="304.5" class="style0"/><line x1="548.6" y1="261.5" x2="570.2" y2="253.8" class="style0"/><line x1="529" y1="236.9" x2="554.1" y2="192.8" class="style0"/><path d="M448.8 188.7" class="style0"/><path d="M563.5 175.8" class="style0"/><line x1="453.3" y1="203.4" x2="472.8" y2="242.6" class="style0"/><line x1="462.4" y1="257.2" x2="411.9" y2="230.9" class="style0"/><line x1="394.8" y1="237.5" x2="393.9" y2="272.1" class="style0"/><line x1="408.8" y1="287.4" x2="459" y2="284.9" class="style0"/><line x1="469.1" y1="306" x2="386.8" y2="376.2" class="style0"/><line x1="391.4" y1="299.2" x2="373.3" y2="365.6" class="style0"/><line x1="381.7" y1="282.6" x2="322.9" y2="240.8" class="style0"/><line x1="340.6" y1="421.4" x2="270.8" y2="522.1" class="style0"/><line x1="621.7" y1="339.6" x2="750" y2="269.6" class="style0"/><line x1="810.7" y1="246.3" x2="896.4" y2="229.8" class="style0"/><line x1="730.5" y1="189.7" x2="761.2" y2="228.8" class="style0"/><line x1="591.2" y1="265.8" x2="597.3" y2="326.3" class="style0"/><line x1="576.9" y1="192.8" x2="585.8" y2="229.9" class="style0"/><path d="M724.6 166.4" class="style0"/><path d="M563.4 184.4" class="style0"/><line x1="623.4" y1="673" x2="663.5" y2="611.7" class="style0"/><path d="M902.9 225.7" class="style0"/><path d="M717.9 167" class="style0"/><g class="style1"><circle cx="589.9" cy="448.8" r="15.7" class="style2"/><circle cx="675.1" cy="601.2" r="15.7" class="style2"/><circle cx="713.3" cy="706.9" r="15.7" class="style2"/><circle cx="807.4" cy="642.9" r="15.7" class="style2"/><circle cx="1013.3" cy="526" r="15.7" class="style2"/><circle cx="1179.2" cy="485.8" r="15.7" class="style2"/><circle cx="1213.1" cy="535.6" r="15.7" class="style2"/><circle cx="1219.5" cy="652.5" r="15.7" class="style2"/><circle cx="1153.5" cy="674.4" r="18.2" class="style2"/><circle cx="1115.7" cy="482.1" r="13.8" class="style2"/><circle cx="1006" cy="447.6" r="32.6" class="style2"/><circle cx="1177.1" cy="381.7" r="32.6" class="style2"/><circle cx="723.1" cy="411.2" r="40.1" class="style2"/><circle cx="1149.2" cy="167.6" r="40.1" class="style2"/><circle cx="1125.2" cy="591.6" r="46.4" class="style2"/><circle cx="818.6" cy="551.5" r="26.3" class="style2"/><circle cx="673.4" cy="505.9" r="26.3" class="style2"/><circle cx="1049.1" cy="686.7" r="26.3" class="style2"/><circle cx="958.1" cy="678.6" r="12.5" class="style2"/><circle cx="1009.4" cy="624.4" r="12.5" class="style2"/><circle cx="803.2" cy="433.3" r="12.5" class="style2"/><circle cx="989.7" cy="136.6" r="14.4" class="style2"/><circle cx="983.4" cy="298.3" r="14.4" class="style2"/><circle cx="1098.8" cy="321.4" r="14.4" class="style2"/><circle cx="1246.7" cy="313.9" r="14.4" class="style2"/><circle cx="868.7" cy="348.2" r="14.4" class="style2"/><circle cx="891.6" cy="462" r="14.4" class="style2"/><circle cx="931.4" cy="581.3" r="18.2" class="style2"/><circle cx="514.2" cy="726.4" r="15.7" class="style2"/><circle cx="619.9" cy="688.3" r="15.7" class="style2"/><circle cx="555.9" cy="594.2" r="15.7" class="style2"/><circle cx="439" cy="388.3" r="15.7" class="style2"/><circle cx="398.8" cy="222.4" r="15.7" class="style2"/><circle cx="448.6" cy="188.5" r="15.7" class="style2"/><circle cx="395.1" cy="285.9" r="13.8" class="style2"/><circle cx="360.6" cy="395.6" r="32.6" class="style2"/><circle cx="294.7" cy="224.5" r="32.6" class="style2"/><circle cx="168.8" cy="622" r="32.6" class="style2"/><circle cx="324.2" cy="678.4" r="40.1" class="style2"/><circle cx="80.7" cy="252.3" r="40.1" class="style2"/><circle cx="504.6" cy="276.4" r="46.4" class="style2"/><circle cx="464.5" cy="583" r="26.3" class="style2"/><circle cx="537.4" cy="392.1" r="12.5" class="style2"/><circle cx="346.3" cy="598.4" r="12.5" class="style2"/><circle cx="142.8" cy="492.6" r="12.5" class="style2"/><circle cx="49.6" cy="411.9" r="14.4" class="style2"/><circle cx="211.3" cy="418.2" r="14.4" class="style2"/><circle cx="234.4" cy="302.8" r="14.4" class="style2"/><circle cx="261.2" cy="532.8" r="14.4" class="style2"/><circle cx="375" cy="509.9" r="14.4" class="style2"/><circle cx="494.3" cy="470.1" r="18.2" class="style2"/><circle cx="779.5" cy="255.8" r="32.6" class="style2"/><circle cx="565.5" cy="182.1" r="15.7" class="style2"/><circle cx="587.5" cy="248.1" r="18.2" class="style2"/><circle cx="599.7" cy="352.5" r="26.3" class="style2"/><circle cx="721.7" cy="173.7" r="18.2" class="style2"/><circle cx="909" cy="229.8" r="12.5" class="style2"/></g></svg>
